<svg xmlns="http://www.w3.org/2000/svg" viewBox="0 0 40 40">
  <defs>
    <style>
      .cls-1 {
        fill: #fff;
      }
    </style>
  </defs>
  <title>instaРесурс 3</title>
  <g id="Слой_2" data-name="Слой 2">
    <g id="ELEMENTS">
      <g>
        <path class="cls-1" d="M30.59,7.14a2.35,2.35,0,1,0,2.34,2.35A2.35,2.35,0,0,0,30.59,7.14Z"/>
        <path class="cls-1" d="M20.16,10.15A9.85,9.85,0,1,0,30,20,9.86,9.86,0,0,0,20.16,10.15Zm0,16.16A6.31,6.31,0,1,1,26.47,20,6.32,6.32,0,0,1,20.16,26.31Z"/>
        <path class="cls-1" d="M28,40H12A12,12,0,0,1,0,28V12A12,12,0,0,1,12,0H28A12,12,0,0,1,40,12V28A12,12,0,0,1,28,40ZM12,3.76A8.26,8.26,0,0,0,3.76,12V28A8.26,8.26,0,0,0,12,36.24H28A8.27,8.27,0,0,0,36.24,28V12A8.27,8.27,0,0,0,28,3.76Z"/>
      </g>
    </g>
  </g>
</svg>
