<svg xmlns="http://www.w3.org/2000/svg" viewBox="0 0 32.46 40">
  <defs>
    <style>
      .cls-1 {
        fill: #fff;
      }
    </style>
  </defs>
  <title>instaРесурс 4</title>
  <g id="Слой_2" data-name="Слой 2">
    <g id="ELEMENTS">
      <path class="cls-1" d="M26.13,18.14H24.44A10.93,10.93,0,1,0,8,18.14H6.33A6.34,6.34,0,0,0,0,24.46V40H32.46V24.46A6.34,6.34,0,0,0,26.13,18.14ZM9,10.93a7.21,7.21,0,1,1,7.21,7.21A7.23,7.23,0,0,1,9,10.93ZM28.73,36.28h-25V24.46a2.61,2.61,0,0,1,2.61-2.6h19.8a2.6,2.6,0,0,1,2.6,2.6Z"/>
    </g>
  </g>
</svg>
