<svg xmlns="http://www.w3.org/2000/svg" viewBox="0 0 250 107.04">
  <defs>
    <style>
      .cls-1 {
        fill: #fff;
      }
    </style>
  </defs>
  <title>sw-logoРесурс 1</title>
  <g id="Слой_2" data-name="Слой 2">
    <g id="Слой_1-2" data-name="Слой 1">
      <g>
        <path class="cls-1" d="M212.3,87.53l-3.4-4c-1.56-1.84-3.25-3.59-4.68-5.53a14.57,14.57,0,0,1,10-22.9,25.72,25.72,0,0,1,4-.29c10.34,0,31.67,0,31.67,0V73H225.36c.82,1.09,1.54,2,2.28,3,2.13,2.7,4.31,5.38,6.4,8.11,3.22,4.22,3.3,8.79,1.28,13.5a16.56,16.56,0,0,1-6.82,7.56,11.52,11.52,0,0,1-5.76,1.5c-4.75.17-44.76.11-46.77.07a7.72,7.72,0,0,1-4.76-1.67c-2.56-2-13.36-11.73-13.36-11.73V107H137.33V55.33H171c7.59,0,13.12,3.56,16.93,10,1.48,2.49,3.62,13-3.15,18.62-1.16,1-2.4,1.95-3.62,2.94a1.74,1.74,0,0,0,1.63.67C185.69,87.6,211.41,87.58,212.3,87.53Zm-54.46-12,.48.06c2.74,0,5.48.06,8.22.06a11.77,11.77,0,0,0,2.37-.25,2.29,2.29,0,0,0-.29-4.53c-2.48-.12-5-.14-7.45-.19-1.09,0-2.18,0-3.33,0Z"/>
        <path class="cls-1" d="M77.82,52V17.63H54a11,11,0,0,0,.58,1.05c1.75,2.31,7.6,9.9,8.64,11.48,3.28,5,1.39,15.24-5.77,20.13-2.19,1.24-7,1.59-7,1.59L0,52.07V33.13l41.32-.19s-6.1-7.13-8-9.33c-5.16-6.12-2.29-19,8.17-22.93A25.92,25.92,0,0,1,45.72.14L120.14,0V17.55H97.58V52Z"/>
        <path class="cls-1" d="M199.57,39V52H178.75V.41c.23,0,.47,0,.71,0,9.84,0,19.68,0,29.52.06a76.19,76.19,0,0,1,8.14.33c4.06.47,7.3,2.56,10.12,5.49,5.59,5.81,5.35,15.74.61,21.29a19.76,19.76,0,0,1-4.17,3.73l-1.27.82a2.39,2.39,0,0,0,1.91.91l25.6.31L250,52s-32.08-.16-33.81-.27a6.89,6.89,0,0,1-4-1.65Q208,46.6,203.88,43c-1.27-1.11-2.46-2.3-3.7-3.46C200,39.38,199.85,39.24,199.57,39Zm-.19-18.27a.85.85,0,0,0,.21.07c3.63,0,7.25-.07,10.88-.13a1.29,1.29,0,0,0,.61-.22,2.41,2.41,0,0,0,.89-3,2.08,2.08,0,0,0-2.12-1.43c-2.8-.15-5.6-.16-8.4-.22h-2.07Z"/>
        <path class="cls-1" d="M39.53,85.46S33.8,101.13,32,106.12c-.15.42-.32.6-.8.59q-6.1,0-12.19,0c-.49,0-.66-.17-.81-.6Q9.64,80.9,1,55.67C1,55.46.93,55.25.86,55h2C8.39,55,14,55,19.53,55a1,1,0,0,1,1.09.8c1.41,4.07,2.86,8.12,4.3,12.17.08.23.18.45.33.84.23-.63.41-1.11.58-1.59,1.36-3.87,2.73-7.73,4.08-11.6a.75.75,0,0,1,.86-.62c5.89,0,11.78,0,17.67,0a.82.82,0,0,1,.9.68c1.4,4.16,2.83,8.32,4.25,12.48.07.21.15.42.3.82.14-.35.22-.54.29-.73C55.61,64.08,57,60,58.44,55.86a.9.9,0,0,1,1-.74c6,0,12,0,18.08,0h.76c-.09.29-.14.5-.21.7q-8.67,25.29-17.35,50.59a.76.76,0,0,1-.87.61q-6.11,0-12.19,0a.8.8,0,0,1-.9-.66C44.46,99.66,39.53,85.46,39.53,85.46Z"/>
        <path class="cls-1" d="M174,52.48H154.41l-1.3-4.2c-.23-.74-.48-1.47-.67-2.22a.58.58,0,0,0-.67-.5l-17.4-.09a.63.63,0,0,0-.71.54c-.55,1.85-1.14,3.7-1.7,5.55-.1.33-.22.53-.64.53q-9.5,0-19,0a2.77,2.77,0,0,1-.41,0c.23-.67.44-1.32.66-2q8.46-24.51,16.92-49a.82.82,0,0,1,1-.68q12.43,0,24.87,0a.8.8,0,0,1,.92.63Q165,26.49,173.86,52C173.91,52.1,174,52.25,174,52.48ZM143.33,19.6h-.17c-1.16,3.24-2.31,6.49-3.48,9.77h7Z"/>
        <path class="cls-1" d="M112.3,106.62c-.64-2.05-1.31-4.13-1.94-6.22a.7.7,0,0,0-.8-.61q-8.66,0-17.32-.14a.69.69,0,0,0-.8.59c-.55,1.93-1.13,3.85-1.68,5.77-.11.38-.26.55-.7.54-6.21-.09-12.42-.15-18.63-.23l-.36,0,.25-.77Q79,80.41,87.65,55.29a.8.8,0,0,1,.9-.67q12.33,0,24.66,0a.86.86,0,0,1,1,.7q8.76,25.29,17.56,50.58c.08.22.14.43.24.74Zm-8-23.21L101.13,74l-3.44,9.42Z"/>
      </g>
    </g>
  </g>
</svg>
