<svg xmlns="http://www.w3.org/2000/svg" viewBox="0 0 250 107.03">
  <defs>
    <style>
      .cls-1 {
        fill: #fffb00;
      }
    </style>
  </defs>
  <title>sw-logo-goldРесурс 1</title>
  <g id="Слой_2" data-name="Слой 2">
    <g id="Слой_1-2" data-name="Слой 1">
      <g id="Слой_2-2" data-name="Слой 2">
        <g id="Слой_1-2-2" data-name="Слой 1-2">
          <g>
            <path class="cls-1" d="M212.3,87.53l-3.4-4c-1.56-1.84-3.25-3.59-4.68-5.53a14.57,14.57,0,0,1,10-22.9,25.46,25.46,0,0,1,4-.29h31.67V73H225.36c.82,1.09,1.54,2,2.28,3,2.13,2.7,4.31,5.38,6.4,8.11,3.22,4.22,3.3,8.79,1.28,13.5a16.56,16.56,0,0,1-6.82,7.56,11.52,11.52,0,0,1-5.76,1.5c-4.75.17-44.76.11-46.77.07a7.74,7.74,0,0,1-4.76-1.67c-2.56-2-13.36-11.73-13.36-11.73V107H137.33V55.33H171c7.59,0,13.12,3.56,16.93,10,1.48,2.49,3.62,13-3.15,18.62-1.16,1-2.4,2-3.62,2.94a1.74,1.74,0,0,0,1.63.67C185.69,87.6,211.41,87.58,212.3,87.53Zm-54.46-12,.48.06c2.74,0,5.48.06,8.22.06a11.77,11.77,0,0,0,2.37-.25,2.29,2.29,0,0,0-.29-4.53c-2.48-.12-5-.14-7.45-.19h-3.33Z"/>
            <path class="cls-1" d="M77.82,52V17.63H54a10.74,10.74,0,0,0,.58,1.05c1.75,2.31,7.6,9.9,8.64,11.48,3.28,5,1.39,15.24-5.77,20.13-2.19,1.24-7,1.59-7,1.59L0,52.07V33.13l41.32-.19s-6.1-7.13-8-9.33C28.16,17.49,31,4.61,41.49.68A25.11,25.11,0,0,1,45.72.14L120.14,0V17.55H97.58V52Z"/>
            <path class="cls-1" d="M199.57,39V52H178.75V.41h.71c9.84,0,19.68,0,29.52.06a73.76,73.76,0,0,1,8.14.33c4.06.47,7.3,2.56,10.12,5.49,5.59,5.81,5.35,15.74.61,21.29a20,20,0,0,1-4.17,3.73l-1.27.82a2.41,2.41,0,0,0,1.91.91l25.6.31L250,52s-32.08-.16-33.81-.27a6.87,6.87,0,0,1-4-1.65Q208,46.6,203.88,43c-1.27-1.11-2.46-2.3-3.7-3.46Zm-.19-18.27a.86.86,0,0,0,.21.07c3.63,0,7.25-.07,10.88-.13a1.32,1.32,0,0,0,.61-.22,2.42,2.42,0,0,0,.89-3A2.07,2.07,0,0,0,209.85,16c-2.8-.15-5.6-.16-8.4-.22h-2.07Z"/>
            <path class="cls-1" d="M39.53,85.46S33.8,101.13,32,106.12c-.15.42-.32.6-.8.59H19a.72.72,0,0,1-.81-.6Q9.64,80.9,1,55.67A2.59,2.59,0,0,0,.86,55H19.53a1,1,0,0,1,1.09.8C22,59.87,23.48,63.92,24.92,68c.08.23.18.45.33.84.23-.63.41-1.11.58-1.59,1.36-3.87,2.73-7.73,4.08-11.6a.75.75,0,0,1,.86-.62H48.44a.82.82,0,0,1,.9.68c1.4,4.16,2.83,8.32,4.25,12.48.07.21.15.42.3.82.14-.35.22-.54.29-.73C55.61,64.08,57,60,58.44,55.86a.9.9,0,0,1,1-.74H78.28c-.09.29-.14.5-.21.7Q69.4,81.11,60.72,106.41a.76.76,0,0,1-.87.61H47.66a.8.8,0,0,1-.9-.66C44.46,99.66,39.53,85.46,39.53,85.46Z"/>
            <path class="cls-1" d="M174,52.48H154.41l-1.3-4.2c-.23-.74-.48-1.47-.67-2.22a.58.58,0,0,0-.65-.5h0l-17.4-.09a.63.63,0,0,0-.71.54h0c-.55,1.85-1.14,3.7-1.7,5.55-.1.33-.22.53-.64.53H111.91c.23-.67.44-1.32.66-2l16.92-49a.81.81,0,0,1,.93-.69h24.94a.81.81,0,0,1,.92.63Q165,26.5,173.86,52A1,1,0,0,1,174,52.48ZM143.33,19.6h-.17c-1.16,3.24-2.31,6.49-3.48,9.77h7Z"/>
            <path class="cls-1" d="M112.3,106.62c-.64-2.05-1.31-4.13-1.94-6.22a.7.7,0,0,0-.78-.61h0q-8.66,0-17.32-.14a.7.7,0,0,0-.8.56v0c-.55,1.93-1.13,3.85-1.68,5.77-.11.38-.26.55-.7.54-6.21-.09-12.42-.15-18.63-.23h-.36l.25-.77Q79,80.41,87.65,55.29a.8.8,0,0,1,.9-.67h24.66a.87.87,0,0,1,1,.69h0Q123,80.61,131.77,105.9c.08.22.14.43.24.74Zm-8-23.21L101.13,74l-3.44,9.42Z"/>
          </g>
        </g>
      </g>
    </g>
  </g>
</svg>
