<svg xmlns="http://www.w3.org/2000/svg" viewBox="0 0 48.6 40">
  <defs>
    <style>
      .cls-1 {
        fill: #fff;
      }
    </style>
  </defs>
  <title>twitРесурс 7</title>
  <g id="Слой_2" data-name="Слой 2">
    <g id="ELEMENTS">
      <path class="cls-1" d="M48.4,4.79A20,20,0,0,1,43.48,6.2c.79-.14,2-1.57,2.42-2.15a9,9,0,0,0,1.63-3c0-.09.08-.19,0-.26a.27.27,0,0,0-.26,0,25.23,25.23,0,0,1-5.83,2.22A.38.38,0,0,1,41,3a5,5,0,0,0-.51-.52A10.25,10.25,0,0,0,37.7.72,9.87,9.87,0,0,0,33.37,0a10.38,10.38,0,0,0-4.11,1.16A10.58,10.58,0,0,0,26,3.89a10,10,0,0,0-2,4,10.7,10.7,0,0,0-.1,4.18c0,.24,0,.27-.2.24-8-1.19-14.64-4.06-20-10.19-.23-.27-.36-.27-.55,0-2.36,3.53-1.21,9.2,1.73,12a16,16,0,0,0,1.23,1.09,10.15,10.15,0,0,1-3.86-1.09C2,14,1.84,14,1.82,14.3a5.56,5.56,0,0,0,.06,1.14,10.26,10.26,0,0,0,6.33,8.19A5.74,5.74,0,0,0,9.49,24a11.5,11.5,0,0,1-3.79.12c-.27-.06-.38.08-.27.35,1.66,4.54,5.26,5.9,8,6.67.36.06.72.06,1.08.14,0,0,0,0-.06.07-.9,1.36-4,2.37-5.44,2.88A19.5,19.5,0,0,1,.71,35.31c-.44-.07-.54-.06-.66,0s0,.18.13.29c.56.37,1.14.7,1.72,1a26.86,26.86,0,0,0,5.52,2.21c9.92,2.74,21.1.73,28.55-6.67,5.84-5.82,7.9-13.83,7.9-21.86,0-.31.37-.48.59-.65a19.07,19.07,0,0,0,3.88-4,1.2,1.2,0,0,0,.26-.77v0C48.6,4.67,48.6,4.71,48.4,4.79Z"/>
    </g>
  </g>
</svg>
