<svg xmlns="http://www.w3.org/2000/svg" viewBox="0 0 400 178.86">
  <defs>
    <style>
      .cls-1 {
        fill: #fff;
      }
    </style>
  </defs>
  <title>wall-logoРесурс 1</title>
  <g id="Слой_2" data-name="Слой 2">
    <g id="Слой_1-2" data-name="Слой 1">
      <g>
        <rect class="cls-1" x="129.31" y="109.3" width="13.59" height="69.56" rx="0.42"/>
        <path class="cls-1" d="M212.58,9.3v83a9.3,9.3,0,0,0,9.3,9.3h30a9.31,9.31,0,0,0,9.31-9.3V9.3A9.31,9.31,0,0,0,251.91,0h-30A9.3,9.3,0,0,0,212.58,9.3Zm28,74h-7.41a.77.77,0,0,1-.77-.77V19.06a.77.77,0,0,1,.77-.77h7.41a.76.76,0,0,1,.77.77V82.5A.76.76,0,0,1,240.6,83.27Z"/>
        <path class="cls-1" d="M41,115.64v56.84a6.37,6.37,0,0,0,6.37,6.38H67.93a6.38,6.38,0,0,0,6.38-6.38V115.64a6.38,6.38,0,0,0-6.38-6.38H47.35A6.38,6.38,0,0,0,41,115.64Zm19.2,50.69H55.1a.52.52,0,0,1-.52-.53V122.32a.52.52,0,0,1,.52-.52h5.08a.52.52,0,0,1,.53.52V165.8A.53.53,0,0,1,60.18,166.33Z"/>
        <path class="cls-1" d="M286,115.64v56.84a6.37,6.37,0,0,0,6.37,6.38H312.9a6.38,6.38,0,0,0,6.38-6.38V115.64a6.38,6.38,0,0,0-6.38-6.38H292.32A6.38,6.38,0,0,0,286,115.64Zm19.2,50.69h-5.08a.53.53,0,0,1-.53-.53V122.32a.52.52,0,0,1,.53-.52h5.08a.52.52,0,0,1,.53.52V165.8A.53.53,0,0,1,305.15,166.33Z"/>
        <path class="cls-1" d="M35.44,132.46V116.05a6.75,6.75,0,0,0-6.75-6.75H8.13a6.75,6.75,0,0,0-6.75,6.75v56.06a6.75,6.75,0,0,0,6.75,6.75H28.69a6.75,6.75,0,0,0,6.75-6.75V154.89a.4.4,0,0,0-.4-.4H21.55a.4.4,0,0,0-.4.4v11.05a.39.39,0,0,1-.4.39H15.37a.39.39,0,0,1-.4-.39V122.22a.39.39,0,0,1,.4-.39h5.38a.39.39,0,0,1,.4.39v10.24a.4.4,0,0,0,.4.4H35A.4.4,0,0,0,35.44,132.46Z"/>
        <path class="cls-1" d="M192.74,116v56.08a6.74,6.74,0,0,0,6.74,6.74h19.59a6.75,6.75,0,0,0,6.75-6.74V138.87a.4.4,0,0,0-.4-.4H208.66a.4.4,0,0,0-.4.4V150.6a.4.4,0,0,0,.4.4h3.17a.39.39,0,0,1,.4.39v14.55a.39.39,0,0,1-.4.39h-5.1a.39.39,0,0,1-.4-.39V122.22a.39.39,0,0,1,.4-.39h5.1a.39.39,0,0,1,.4.39v7.42a.39.39,0,0,0,.39.4h12.8a.4.4,0,0,0,.4-.4V116a6.75,6.75,0,0,0-6.75-6.74H199.48A6.74,6.74,0,0,0,192.74,116Z"/>
        <path class="cls-1" d="M301,1.62v29a48.59,48.59,0,0,0,.85,9.09l.88,4.63L288.1.07H271.44a1.54,1.54,0,0,0-1.55,1.55V100a1.55,1.55,0,0,0,1.55,1.55h16.73a1.55,1.55,0,0,0,1.55-1.55V66.65a19.73,19.73,0,0,0-.19-2.77l-1-7.61,13.77,45.29h17a1.56,1.56,0,0,0,1.55-1.55V1.62A1.55,1.55,0,0,0,319.28.07H302.55A1.54,1.54,0,0,0,301,1.62Z"/>
        <path class="cls-1" d="M172.37,110.44v19.87a33.37,33.37,0,0,0,.59,6.23l.6,3.16-10-30.32h-11.4a1.05,1.05,0,0,0-1.06,1.06V177.8a1.06,1.06,0,0,0,1.06,1.06h11.45a1.06,1.06,0,0,0,1.06-1.06V155a15,15,0,0,0-.12-1.9l-.7-5.2,9.42,31h11.64A1.06,1.06,0,0,0,186,177.8V110.44a1.05,1.05,0,0,0-1.06-1.06H173.44A1.06,1.06,0,0,0,172.37,110.44Z"/>
        <path class="cls-1" d="M109.24,109.62,102,139l-7.78-29.4a.43.43,0,0,0-.41-.32H81a.43.43,0,0,0-.43.43v68.7a.43.43,0,0,0,.43.43H93.7a.43.43,0,0,0,.43-.43V159.22a48.88,48.88,0,0,0-.46-6.62l-1.07-7.73,5.24,26.35a.43.43,0,0,0,.42.35h7.44a.43.43,0,0,0,.43-.37l4-26.67-.66,9.73c-.08,1.09-.11,2.18-.11,3.27v20.9a.42.42,0,0,0,.42.43h12.74a.43.43,0,0,0,.43-.43v-68.7a.43.43,0,0,0-.43-.43H109.65A.41.41,0,0,0,109.24,109.62Z"/>
        <path class="cls-1" d="M352.32,10.15V32.87a.39.39,0,0,0,.4.4h19a.39.39,0,0,0,.4-.4V18.23a.4.4,0,0,1,.4-.4l7.67-.07a.4.4,0,0,1,.4.4V31a.37.37,0,0,1,0,.18L352.48,86.29a6.18,6.18,0,0,0-.68,2.83V101a.4.4,0,0,0,.4.4H399.6a.4.4,0,0,0,.4-.4V83.67a.4.4,0,0,0-.4-.4H375.17a.4.4,0,0,1-.36-.58L398.9,35.43a10.1,10.1,0,0,0,1.1-4.58V10.15A10.08,10.08,0,0,0,389.92.07H362.4A10.08,10.08,0,0,0,352.32,10.15Z"/>
        <path class="cls-1" d="M325.55,116.21v15.61a.27.27,0,0,0,.27.27h13.09a.27.27,0,0,0,.27-.27V121.76a.28.28,0,0,1,.28-.27l5.27,0a.27.27,0,0,1,.27.27v8.82a.28.28,0,0,1,0,.13l-19.31,37.85a4.25,4.25,0,0,0-.47,2v8.12a.28.28,0,0,0,.28.28H358a.27.27,0,0,0,.27-.27V166.71a.27.27,0,0,0-.27-.27H341.25a.28.28,0,0,1-.25-.4l16.55-32.46a7.05,7.05,0,0,0,.75-3.15V116.21a6.92,6.92,0,0,0-6.92-6.93H332.47A6.92,6.92,0,0,0,325.55,116.21Z"/>
        <path class="cls-1" d="M366.09,116.21v15.61a.28.28,0,0,0,.28.27h13.09a.27.27,0,0,0,.27-.27V121.76a.27.27,0,0,1,.27-.27l5.27,0a.27.27,0,0,1,.28.27v8.82a.28.28,0,0,1,0,.13L366.2,168.51a4.37,4.37,0,0,0-.46,2v8.12a.28.28,0,0,0,.28.28h32.56a.27.27,0,0,0,.28-.27V166.71a.27.27,0,0,0-.28-.27H381.79a.28.28,0,0,1-.24-.4l16.55-32.46a7.05,7.05,0,0,0,.75-3.15V116.21a6.92,6.92,0,0,0-6.92-6.93H373A6.93,6.93,0,0,0,366.09,116.21Z"/>
        <path class="cls-1" d="M248.38,116.21v15.61a.28.28,0,0,0,.28.27h13.08a.27.27,0,0,0,.28-.27V121.76a.27.27,0,0,1,.27-.27l5.27,0a.28.28,0,0,1,.28.27v8.82a.28.28,0,0,1,0,.13l-19.32,37.85a4.25,4.25,0,0,0-.47,2v8.12a.27.27,0,0,0,.27.28h32.57a.28.28,0,0,0,.28-.27V166.71a.28.28,0,0,0-.28-.27H264.08a.27.27,0,0,1-.24-.4l16.54-32.46a6.93,6.93,0,0,0,.76-3.15V116.21a6.93,6.93,0,0,0-6.93-6.93h-18.9A6.93,6.93,0,0,0,248.38,116.21Z"/>
        <path class="cls-1" d="M156.82,10l0,27.82A9.89,9.89,0,0,0,159.9,45l24.77,23.3v14.3a.66.66,0,0,1-.66.66h-6.72a.65.65,0,0,1-.65-.66V67.82a.67.67,0,0,0-.66-.66H157.49a.66.66,0,0,0-.65.66V91.57a9.91,9.91,0,0,0,9.9,9.91h28.37A9.91,9.91,0,0,0,205,91.56L205,63.67a9.91,9.91,0,0,0-3.12-7.19l-25.19-23.7V18.19a.66.66,0,0,1,.65-.66H184a.67.67,0,0,1,.66.66V32.62a.65.65,0,0,0,.65.65h19.07a.66.66,0,0,0,.66-.65V10a9.91,9.91,0,0,0-9.91-9.9H166.73A9.9,9.9,0,0,0,156.82,10Z"/>
        <path class="cls-1" d="M0,10,0,37.78A9.89,9.89,0,0,0,3.12,45l24.77,23.3v14.3a.66.66,0,0,1-.66.66H20.52a.65.65,0,0,1-.66-.66V67.82a.67.67,0,0,0-.66-.66H.71a.66.66,0,0,0-.65.66V91.57a9.91,9.91,0,0,0,9.9,9.91H38.33a9.9,9.9,0,0,0,9.91-9.93l-.07-27.89a9.87,9.87,0,0,0-3.12-7.19L19.86,32.78V18.19a.66.66,0,0,1,.66-.66h6.71a.67.67,0,0,1,.66.66V32.62a.65.65,0,0,0,.66.65H47.61a.66.66,0,0,0,.66-.65V10A9.91,9.91,0,0,0,38.36.07H10A9.9,9.9,0,0,0,0,10Z"/>
        <path class="cls-1" d="M136.16,101.56h15.57a2,2,0,0,0,2-2.36L138.31,1.79a2,2,0,0,0-2-1.72H118a2,2,0,0,0-2,1.72L100.59,99.2a2,2,0,0,0,2,2.36h15.6a2,2,0,0,0,2-1.8l1.54-13.19a.35.35,0,0,1,.35-.31h10.32a.35.35,0,0,1,.35.31l1.34,13.16A2,2,0,0,0,136.16,101.56ZM123.67,67.65l3.25-35.87,4,35.87a.36.36,0,0,1-.35.39H124A.35.35,0,0,1,123.67,67.65Z"/>
        <path class="cls-1" d="M95.93,17.6V.75a.67.67,0,0,0-.68-.68H56.54a.68.68,0,0,0-.69.68V100.87a.69.69,0,0,0,.69.69l38.71-.2a.69.69,0,0,0,.68-.69V83.82a.68.68,0,0,0-.68-.69H76.34a.67.67,0,0,1-.68-.68V58.71a.67.67,0,0,1,.68-.68h15.1a.68.68,0,0,0,.68-.69V40.49a.67.67,0,0,0-.68-.68H76.34a.68.68,0,0,1-.68-.69V19a.67.67,0,0,1,.68-.68H95.25A.68.68,0,0,0,95.93,17.6Z"/>
      </g>
    </g>
  </g>
</svg>
