<svg xmlns="http://www.w3.org/2000/svg" viewBox="0 0 40 40">
  <defs>
    <style>
      .cls-1 {
        fill: #fff;
      }
    </style>
  </defs>
  <title>worldРесурс 5</title>
  <g id="Слой_2" data-name="Слой 2">
    <g id="ELEMENTS">
      <path class="cls-1" d="M39.91,18.14a20,20,0,0,0-39.82,0H0v3.72H.09a20,20,0,0,0,39.82,0H40V18.14Zm-3.74,0H28.63c-.19-5-1.13-9.9-2.8-13.34A16.33,16.33,0,0,1,36.17,18.14ZM20,36.28c-1.58,0-4.55-5.07-4.91-14.42h9.82C24.55,31.21,21.58,36.28,20,36.28ZM15.09,18.14C15.45,8.79,18.42,3.72,20,3.72s4.55,5.07,4.91,14.42ZM14.17,4.8c-1.67,3.44-2.61,8.32-2.8,13.34H3.83A16.33,16.33,0,0,1,14.17,4.8ZM3.83,21.86h7.54c.19,5,1.13,9.9,2.8,13.34A16.33,16.33,0,0,1,3.83,21.86Zm22,13.34c1.67-3.44,2.61-8.32,2.8-13.34h7.54A16.33,16.33,0,0,1,25.83,35.2Z"/>
    </g>
  </g>
</svg>
